<?xml version="1.0" standalone="no"?><!-- Generator: Gravit.io --><svg xmlns="http://www.w3.org/2000/svg" xmlns:xlink="http://www.w3.org/1999/xlink" style="isolation:isolate" viewBox="0 0 303.827 303.827" width="303.827" height="303.827"><defs><clipPath id="_clipPath_Qwd5JtSI9liEzRPiKtdALIrJbEcZMzwx"><rect width="303.827" height="303.827"/></clipPath></defs><g clip-path="url(#_clipPath_Qwd5JtSI9liEzRPiKtdALIrJbEcZMzwx)"><clipPath id="_clipPath_BvsQVx73uR9z17RkQ86K4pm0Q2CrQMKt"><rect x="7.241" y="7.241" width="289.345" height="289.345" transform="matrix(1,0,0,1,0,0)" fill="rgb(255,255,255)"/></clipPath><g clip-path="url(#_clipPath_BvsQVx73uR9z17RkQ86K4pm0Q2CrQMKt)"><g id="Group"><path d=" M 45.414 151.241 C 45.414 92.462 93.135 44.741 151.914 44.741 C 210.693 44.741 258.414 92.462 258.414 151.241 C 258.414 210.02 210.693 257.741 151.914 257.741 C 93.135 257.741 45.414 210.02 45.414 151.241 Z " fill="rgb(8,108,8)"/><path d=" M 151.241 258.414 C 92.462 258.414 44.741 210.693 44.741 151.914 C 44.741 93.135 92.462 45.414 151.241 45.414 C 210.02 45.414 257.741 93.135 257.741 151.914 C 257.741 210.693 210.02 258.414 151.241 258.414 Z " fill="rgb(8,108,8)"/><path d=" M 226.745 227.696 C 185.182 269.259 117.694 269.259 76.131 227.696 C 34.568 186.133 34.568 118.645 76.131 77.082 C 117.694 35.519 185.182 35.519 226.745 77.082 C 268.308 118.645 268.308 186.133 226.745 227.696 Z " fill="rgb(8,108,8)"/><path d=" M 227.221 227.696 C 185.658 269.259 118.17 269.259 76.607 227.696 C 35.044 186.133 35.044 118.645 76.607 77.082 C 118.17 35.519 185.658 35.519 227.221 77.082 C 268.784 118.645 268.784 186.133 227.221 227.696 Z " fill="rgb(8,108,8)"/><path d=" M 184.923 7.241 L 118.904 7.241 L 118.904 65.469 L 151.14 84.932 L 184.923 65.469 L 184.923 7.241 Z " fill-rule="evenodd" fill="rgb(23,83,23)"/><path d=" M 7.241 118.904 L 7.241 184.923 L 65.469 184.923 L 84.932 152.687 L 65.469 118.904 L 7.241 118.904 Z " fill-rule="evenodd" fill="rgb(23,83,23)"/><path d=" M 26.273 230.871 L 72.956 277.554 L 114.129 236.381 L 105.097 199.824 L 67.447 189.698 L 26.273 230.871 Z " fill-rule="evenodd" fill="rgb(23,83,23)"/><path d=" M 72.956 26.273 L 26.273 72.956 L 67.447 114.129 L 104.003 105.097 L 114.129 67.447 L 72.956 26.273 Z " fill-rule="evenodd" fill="rgb(23,83,23)"/><path d=" M 118.904 296.586 L 184.923 296.586 L 184.923 238.358 L 152.687 218.896 L 118.904 238.358 L 118.904 296.586 Z " fill-rule="evenodd" fill="rgb(23,83,23)"/><path d=" M 296.586 184.923 L 296.586 118.904 L 238.358 118.904 L 218.896 151.14 L 238.358 184.923 L 296.586 184.923 Z " fill-rule="evenodd" fill="rgb(23,83,23)"/><path d=" M 277.554 72.956 L 230.871 26.273 L 189.698 67.447 L 198.73 104.003 L 236.381 114.129 L 277.554 72.956 Z " fill-rule="evenodd" fill="rgb(23,83,23)"/><path d=" M 230.871 277.554 L 277.554 230.871 L 236.381 189.698 L 199.824 198.73 L 189.698 236.381 L 230.871 277.554 Z " fill-rule="evenodd" fill="rgb(23,83,23)"/></g></g><path d=" M 151.913 0 C 235.756 0 303.827 68.071 303.827 151.913 C 303.827 235.756 235.756 303.827 151.913 303.827 C 68.071 303.827 0 235.756 0 151.913 C 0 68.071 68.071 0 151.913 0 Z  M 151.913 12.329 C 227.949 12.329 289.685 74.876 289.685 151.913 C 289.685 228.956 227.949 291.498 151.913 291.504 C 75.877 291.504 14.142 228.956 14.142 151.913 C 14.142 74.876 75.877 12.329 151.913 12.329 Z  M 151.913 21.563 C 223.854 21.563 282.263 79.973 282.263 151.913 C 282.263 223.854 223.854 282.263 151.913 282.263 C 79.973 282.263 21.563 223.854 21.563 151.913 C 21.563 79.973 79.973 21.563 151.913 21.563 Z " fill-rule="evenodd" fill="rgb(8,108,8)"/><path d=" M 151.913 35.695 C 216.055 35.695 268.132 87.771 268.132 151.913 C 268.132 216.055 216.055 268.132 151.913 268.132 C 87.771 268.132 35.695 216.055 35.695 151.913 C 35.695 87.771 87.771 35.695 151.913 35.695 Z  M 151.913 45.127 C 210.083 45.127 257.313 92.978 257.313 151.913 C 257.313 210.854 210.083 258.7 151.913 258.705 C 93.743 258.705 46.514 210.854 46.514 151.913 C 46.514 92.978 93.743 45.127 151.913 45.127 Z  M 151.913 52.192 C 206.95 52.192 251.635 96.877 251.635 151.913 C 251.635 206.95 206.95 251.635 151.913 251.635 C 96.877 251.635 52.192 206.95 52.192 151.913 C 52.192 96.877 96.877 52.192 151.913 52.192 Z " fill-rule="evenodd" fill="rgb(0,0,0)"/></g></svg>